HIERARCHY
ROOT SpineBase
{
  OFFSET 0.000000 0.000000 0.000000
  CHANNELS 6 Xposition Yposition Zposition Zrotation Xrotation Yrotation
  JOINT SpineMid
  {
    OFFSET 0.000000 26.402003 0.000000
    CHANNELS 3 Zrotation Xrotation Yrotation
    JOINT SpineShoulder
    {
      OFFSET -0.098452 19.712880 -0.698595
      CHANNELS 3 Zrotation Xrotation Yrotation
      JOINT Neck
      {
        OFFSET -0.023613 6.545036 -0.541382
        CHANNELS 3 Zrotation Xrotation Yrotation
        JOINT Head
        {
          OFFSET 2.658933 10.674460 1.271017
          CHANNELS 3 Zrotation Xrotation Yrotation
          End Site
          {
            OFFSET 0 0 0
          }
        }
      }
      JOINT ShoulderLeft
      {
        OFFSET -11.203519 -2.403344 -7.593570
        CHANNELS 3 Zrotation Xrotation Yrotation
        JOINT ElbowLeft
        {
          OFFSET -3.979352 -20.605128 -2.585252
          CHANNELS 3 Zrotation Xrotation Yrotation
          JOINT WristLeft
          {
            OFFSET 1.426345 -22.016137 -6.036578
            CHANNELS 3 Zrotation Xrotation Yrotation
            JOINT HandLeft
            {
              OFFSET 1.120749 -6.908265 -0.191622
              CHANNELS 3 Zrotation Xrotation Yrotation
              JOINT HandTipLeft
              {
                OFFSET 0.528339 -6.079336 -0.385498
                CHANNELS 3 Zrotation Xrotation Yrotation
                End Site
                {
                  OFFSET 0 0 0
                }
              }
              JOINT ThumbLeft
              {
                OFFSET 1.929771 -0.533273 -2.105730
                CHANNELS 3 Zrotation Xrotation Yrotation
                End Site
                {
                  OFFSET 0 0 0
                }
              }
            }
          }
        }
      }
      JOINT ShoulderRight
      {
        OFFSET 12.531817 -4.181456 4.914477
        CHANNELS 3 Zrotation Xrotation Yrotation
        JOINT ElbowRight
        {
          OFFSET 2.185511 -25.265974 2.134737
          CHANNELS 3 Zrotation Xrotation Yrotation
          JOINT WristRight
          {
            OFFSET 3.012304 -21.275129 -3.136142
            CHANNELS 3 Zrotation Xrotation Yrotation
            JOINT HandRight
            {
              OFFSET -0.954565 -4.921040 -0.409837
              CHANNELS 3 Zrotation Xrotation Yrotation
              JOINT HandTipRight
              {
                OFFSET -0.260576 -5.748708 -1.420331
                CHANNELS 3 Zrotation Xrotation Yrotation
                End Site
                {
                  OFFSET 0 0 0
                }
              }
              JOINT ThumbRight
              {
                OFFSET 1.966812 1.090407 -1.467998
                CHANNELS 3 Zrotation Xrotation Yrotation
                End Site
                {
                  OFFSET 0 0 0
                }
              }
            }
          }
        }
      }
    }
  }
  JOINT HipLeft
  {
    OFFSET -4.474086 1.112837 -5.434530
    CHANNELS 3 Zrotation Xrotation Yrotation
    JOINT KneeLeft
    {
      OFFSET -8.338495 -33.383495 2.781890
      CHANNELS 3 Zrotation Xrotation Yrotation
      JOINT AnkleLeft
      {
        OFFSET -3.485719 -31.834436 8.794127
        CHANNELS 3 Zrotation Xrotation Yrotation
        JOINT FootLeft
        {
          OFFSET 3.415751 -5.925191 0.178259
          CHANNELS 3 Zrotation Xrotation Yrotation
          End Site
          {
            OFFSET 0 0 0
          }
        }
      }
    }
  }
  JOINT HipRight
  {
    OFFSET 4.084067 0.317341 -0.655433
    CHANNELS 3 Zrotation Xrotation Yrotation
    JOINT KneeRight
    {
      OFFSET -2.287560 -28.510701 3.369657
      CHANNELS 3 Zrotation Xrotation Yrotation
      JOINT AnkleRight
      {
        OFFSET -7.697808 -37.613476 9.548866
        CHANNELS 3 Zrotation Xrotation Yrotation
        JOINT FootRight
        {
          OFFSET -1.226849 -3.838474 -6.325855
          CHANNELS 3 Zrotation Xrotation Yrotation
          End Site
          {
            OFFSET 0 0 0
          }
        }
      }
    }
  }
}
MOTION
Frames: 10
Frame Time: 0.033333
21.448329 72.535433 367.767657 0.742804 -0.469743 -26.037335 0.390000 -0.077627 26.074885 0.194871 0.469897 0.062489 -2.782787 -5.056602 1.341377 0.000000 0.000000 0.000000 -113.632023 60.975077 70.042733 -177.235053 52.490556 13.377451 43.176813 -44.519488 143.412403 49.479229 -2.501066 -72.406763 0.000000 0.000000 0.000000 0.000000 0.000000 0.000000 0.415441 -3.059610 -0.202735 -3.910914 6.234857 1.119476 2.529754 -1.543862 -0.979112 4.777262 -4.276579 -0.578122 0.000000 0.000000 0.000000 0.000000 0.000000 0.000000 1.034480 2.935347 25.807488 -4.477530 -0.725853 -0.423899 6.254605 -11.259474 -4.636878 0.000000 0.000000 0.000000 -0.873609 0.095978 26.041111 1.349730 0.853771 0.158562 10.192782 0.123606 -19.673885 0.000000 0.000000 0.000000
21.264243 72.625811 367.599011 0.515554 -0.190592 -26.592563 0.396687 -0.068774 26.621795 0.276489 0.459305 0.059288 -2.911010 -5.104819 1.307689 0.000000 0.000000 0.000000 -111.815516 60.398063 67.865788 -176.068491 51.500839 12.743650 28.804448 -38.463582 115.861620 37.523299 6.745121 -56.934270 0.000000 0.000000 0.000000 0.000000 0.000000 0.000000 0.413052 -3.564261 -0.220356 -4.010867 6.292059 1.187148 1.033357 -0.472307 -1.064730 6.088613 -6.530197 -0.239126 0.000000 0.000000 0.000000 0.000000 0.000000 0.000000 1.588337 2.717368 26.423172 -3.963308 -1.047606 -0.218559 6.959278 -6.192031 -2.398720 0.000000 0.000000 0.000000 0.753065 0.774077 26.753526 -0.702936 0.817366 -0.165199 11.222270 7.599986 -21.244352 0.000000 0.000000 0.000000
21.060955 72.746217 367.432163 0.291147 0.037029 -27.102128 -0.242309 -0.165603 27.101683 0.941789 0.330541 0.076395 -2.985409 -5.161672 1.268555 0.000000 0.000000 0.000000 -109.742022 59.959389 65.607786 -175.666957 50.668551 12.228771 28.959073 -36.247614 113.433004 34.186750 9.531480 -53.525551 0.000000 0.000000 0.000000 0.000000 0.000000 0.000000 0.415058 -4.266190 -0.252076 -3.951713 6.256334 1.208285 0.287331 1.635043 -1.248929 5.184467 -9.989457 0.595923 0.000000 0.000000 0.000000 0.000000 0.000000 0.000000 2.118584 2.591376 26.986147 -3.355689 -1.383008 0.025028 5.037506 -6.455853 -3.202179 0.000000 0.000000 0.000000 1.948599 0.127211 27.408115 -1.515636 1.957486 -0.412264 13.676849 7.412054 -24.571306 0.000000 0.000000 0.000000
20.831706 72.898066 367.230918 0.069344 0.291966 -27.492896 0.073271 -0.291005 27.492906 0.749803 0.643478 0.060159 -3.077156 -5.288251 1.245389 0.000000 0.000000 0.000000 -106.720124 59.410333 62.474568 -175.142869 49.204548 11.776324 28.301561 -31.303435 106.690864 28.193631 14.221108 -48.500338 0.000000 0.000000 0.000000 0.000000 0.000000 0.000000 0.438383 -5.058424 -0.289669 -3.929976 6.575031 1.293140 0.222226 3.547454 -1.524393 3.575062 -11.334555 1.217501 0.000000 0.000000 0.000000 0.000000 0.000000 0.000000 2.757924 2.384218 27.461806 -3.616391 -1.133087 -0.053732 3.877785 -6.845586 -3.526019 0.000000 0.000000 0.000000 3.026206 0.161490 27.908198 -2.452783 2.112072 -0.538368 16.732323 10.069096 -29.213505 0.000000 0.000000 0.000000
20.611319 73.044492 367.053741 -0.105919 0.512895 -27.754959 0.332589 -0.404556 27.756608 0.559777 0.922340 0.045154 -3.200814 -5.509266 1.253876 0.000000 0.000000 0.000000 -104.074103 58.739687 59.660652 -174.467582 47.759236 11.351663 28.429907 -28.386959 103.120538 24.934768 16.478298 -46.176598 0.000000 0.000000 0.000000 0.000000 0.000000 0.000000 0.471647 -5.763419 -0.324182 -3.945767 6.601111 1.337592 2.766340 5.780015 -2.083937 2.909640 -9.991749 1.371030 0.000000 0.000000 0.000000 0.000000 0.000000 0.000000 3.390097 2.177579 27.820597 -3.909457 -0.853952 -0.140464 3.622576 -6.566141 -3.403557 0.000000 0.000000 0.000000 3.717168 0.026364 28.241992 -2.855693 2.250816 -0.580076 17.402850 8.256969 -30.167742 0.000000 0.000000 0.000000
20.442959 73.172488 366.948034 -0.189070 0.629119 -27.934060 0.461767 -0.467239 27.936981 0.409434 1.109007 0.033932 -3.384997 -5.766637 1.292337 0.000000 0.000000 0.000000 -101.631870 57.925835 56.997721 -173.752192 46.200898 10.943960 27.544760 -25.013097 97.308194 21.349099 19.478335 -44.161022 0.000000 0.000000 0.000000 0.000000 0.000000 0.000000 0.510377 -6.151043 -0.340579 -3.347698 6.738971 1.238009 2.622886 5.505099 -1.985803 2.231654 -10.659372 1.395805 0.000000 0.000000 0.000000 0.000000 0.000000 0.000000 3.723461 2.070256 28.053540 -4.071963 -0.702605 -0.187186 3.819092 -6.140139 -3.156627 0.000000 0.000000 0.000000 3.571473 -0.383741 28.400718 -2.185763 2.376200 -0.478035 16.252669 3.262605 -28.600715 0.000000 0.000000 0.000000
20.318758 73.286533 366.884431 -0.212269 0.694686 -28.192917 0.515301 -0.511973 28.196507 0.298085 1.201626 0.025888 -3.539570 -6.051856 1.354405 0.000000 0.000000 0.000000 -99.922640 57.129972 55.034722 -173.190190 44.622116 11.183911 25.270579 -20.592704 87.508352 12.381307 19.644907 -32.374678 0.000000 0.000000 0.000000 0.000000 0.000000 0.000000 0.514513 -6.169198 -0.339580 -3.065683 6.397431 1.146423 3.842898 5.480775 -2.043427 0.396045 -11.645510 1.488757 0.000000 0.000000 0.000000 0.000000 0.000000 0.000000 3.942526 1.956161 28.365160 -4.188301 -0.540861 -0.231646 4.560146 -5.047650 -2.511979 0.000000 0.000000 0.000000 3.682616 -0.209309 28.662414 -2.202071 2.171171 -0.442979 17.503466 4.524587 -30.980199 0.000000 0.000000 0.000000
20.204905 73.350980 366.836862 -0.254837 0.750922 -28.051956 -0.077590 0.001786 28.045780 0.554568 0.371010 0.033967 -3.571903 -6.267356 1.425265 0.000000 0.000000 0.000000 -98.562913 56.341125 53.446559 -172.728826 43.114735 11.436904 22.131398 -17.239283 78.344024 6.527998 16.758926 -22.878389 0.000000 0.000000 0.000000 0.000000 0.000000 0.000000 0.504488 -5.950029 -0.330932 -2.869766 6.002792 1.063065 4.640284 5.268876 -2.028980 0.062332 -13.428647 1.530617 0.000000 0.000000 0.000000 0.000000 0.000000 0.000000 4.156783 1.838108 28.270318 -4.279430 -0.399382 -0.269348 5.828557 -3.565503 -1.648976 0.000000 0.000000 0.000000 3.315889 -0.621177 28.474412 -1.279230 2.297124 -0.311781 15.476052 2.739576 -28.253010 0.000000 0.000000 0.000000
20.118236 73.370586 366.833044 -0.312680 0.792587 -27.908611 -0.036656 -0.013063 27.902057 0.510753 0.393406 0.028993 -3.450036 -6.530898 1.478923 0.000000 0.000000 0.000000 -97.528421 55.707116 52.206423 -172.395957 42.540413 10.620999 22.768427 -15.843825 77.135456 4.818777 16.322119 -20.844004 0.000000 0.000000 0.000000 0.000000 0.000000 0.000000 0.446858 -5.863916 -0.333598 -2.685366 5.947726 1.050518 4.279567 3.841106 -1.698762 0.082852 -12.814316 1.286131 0.000000 0.000000 0.000000 0.000000 0.000000 0.000000 4.442118 1.694633 28.193729 -4.406694 -0.186612 -0.324798 7.373196 -1.539644 -0.545792 0.000000 0.000000 0.000000 3.634496 -0.727887 28.374368 -1.409745 2.661571 -0.372218 13.896079 2.618923 -25.642092 0.000000 0.000000 0.000000
19.959103 73.403310 366.696452 -0.482007 1.061288 -27.837852 0.100327 -0.094966 27.831396 0.511869 0.356732 0.025597 -3.267614 -7.020996 1.564348 0.000000 0.000000 0.000000 -96.830906 55.331558 51.394109 -171.292140 41.775545 10.377755 19.394544 -15.544429 73.583188 4.919907 14.278876 -19.032325 0.000000 0.000000 0.000000 0.000000 0.000000 0.000000 0.422923 -6.004541 -0.344905 -2.480628 6.316017 1.088283 4.917088 2.089858 -1.475861 -0.512468 -12.710128 1.082703 0.000000 0.000000 0.000000 0.000000 0.000000 0.000000 5.012505 1.411335 28.219413 -4.593957 1.006022 -0.494948 7.246662 -2.489436 -0.346009 0.000000 0.000000 0.000000 3.446024 -1.614518 28.271567 -0.185779 3.062383 -0.226175 12.075540 4.569602 -23.706336 0.000000 0.000000 0.000000
